<svg width="20" height="20" viewBox="0 0 20 20" fill="none" xmlns="http://www.w3.org/2000/svg">
<path d="M14.584 18.3337H15.0007C15.4427 18.3337 15.8666 18.1581 16.1792 17.8455C16.4917 17.5329 16.6673 17.109 16.6673 16.667V5.83366L12.5007 1.66699H5.00065C4.55862 1.66699 4.1347 1.84259 3.82214 2.15515C3.50958 2.46771 3.33398 2.89163 3.33398 3.33366V5.83366" stroke="#673147" stroke-width="1.66667" stroke-linecap="round" stroke-linejoin="round"/>
<path d="M11.666 1.66699V5.00033C11.666 5.44235 11.8416 5.86628 12.1542 6.17884C12.4667 6.4914 12.8907 6.66699 13.3327 6.66699H16.666" stroke="#673147" stroke-width="1.66667" stroke-linecap="round" stroke-linejoin="round"/>
<path d="M1.66602 15.833C1.66602 15.391 1.84161 14.9671 2.15417 14.6545C2.46673 14.3419 2.89065 14.1663 3.33268 14.1663C3.77471 14.1663 4.19863 14.3419 4.51119 14.6545C4.82375 14.9671 4.99935 15.391 4.99935 15.833V16.6663C4.99935 17.1084 4.82375 17.5323 4.51119 17.8449C4.19863 18.1574 3.77471 18.333 3.33268 18.333C2.89065 18.333 2.46673 18.1574 2.15417 17.8449C1.84161 17.5323 1.66602 17.1084 1.66602 16.6663V13.333C1.66602 12.0069 2.1928 10.7352 3.13048 9.79747C4.06816 8.85979 5.33993 8.33301 6.66602 8.33301C7.9921 8.33301 9.26387 8.85979 10.2015 9.79747C11.1392 10.7352 11.666 12.0069 11.666 13.333V16.6663C11.666 17.1084 11.4904 17.5323 11.1779 17.8449C10.8653 18.1574 10.4414 18.333 9.99935 18.333C9.55732 18.333 9.1334 18.1574 8.82084 17.8449C8.50828 17.5323 8.33268 17.1084 8.33268 16.6663V15.833C8.33268 15.391 8.50828 14.9671 8.82084 14.6545C9.1334 14.3419 9.55732 14.1663 9.99935 14.1663C10.4414 14.1663 10.8653 14.3419 11.1779 14.6545C11.4904 14.9671 11.666 15.391 11.666 15.833" stroke="#673147" stroke-width="1.66667" stroke-linecap="round" stroke-linejoin="round"/>
</svg>
