<svg width="14" height="14" viewBox="0 0 14 14" fill="none" xmlns="http://www.w3.org/2000/svg">
<path fill-rule="evenodd" clip-rule="evenodd" d="M2.9177 5.25008C2.9177 4.16711 3.34791 3.1285 4.11368 2.36273C4.87946 1.59696 5.91807 1.16675 7.00104 1.16675C8.084 1.16675 9.12262 1.59696 9.88839 2.36273C10.6542 3.1285 11.0844 4.16711 11.0844 5.25008V7.44575L12.1472 9.57142C12.1961 9.66925 12.2192 9.77797 12.2143 9.88725C12.2094 9.99653 12.1766 10.1027 12.1191 10.1958C12.0616 10.2888 11.9813 10.3656 11.8857 10.4189C11.7902 10.4721 11.6826 10.5001 11.5732 10.5001H9.26087C9.13112 11.0007 8.83879 11.4441 8.42977 11.7606C8.02076 12.0771 7.51822 12.2489 7.00104 12.2489C6.48386 12.2489 5.98131 12.0771 5.5723 11.7606C5.16329 11.4441 4.87096 11.0007 4.7412 10.5001H2.42887C2.31948 10.5001 2.21191 10.4721 2.11636 10.4189C2.02081 10.3656 1.94047 10.2888 1.88296 10.1958C1.82544 10.1027 1.79267 9.99653 1.78776 9.88725C1.78284 9.77797 1.80594 9.66925 1.85487 9.57142L2.9177 7.44575V5.25008ZM5.9907 10.5001C6.0931 10.6774 6.24038 10.8247 6.41773 10.9271C6.59508 11.0295 6.79625 11.0834 7.00104 11.0834C7.20582 11.0834 7.407 11.0295 7.58435 10.9271C7.76169 10.8247 7.90897 10.6774 8.01137 10.5001H5.9907ZM7.00104 2.33341C6.22749 2.33341 5.48562 2.64071 4.93864 3.18769C4.39166 3.73467 4.08437 4.47653 4.08437 5.25008V7.44575C4.08436 7.62678 4.04222 7.80532 3.96129 7.96725L3.27879 9.33342H10.7239L10.0414 7.96725C9.96024 7.80537 9.9179 7.62682 9.9177 7.44575V5.25008C9.9177 4.47653 9.61041 3.73467 9.06343 3.18769C8.51645 2.64071 7.77459 2.33341 7.00104 2.33341Z" fill="#673147"/>
</svg>
