<svg width="28" height="28" viewBox="0 0 28 28" fill="none" xmlns="http://www.w3.org/2000/svg">
<path d="M0 14C0 6.26801 6.26801 0 14 0C21.732 0 28 6.26801 28 14C28 21.732 21.732 28 14 28C6.26801 28 0 21.732 0 14Z" fill="#673147"/>
<path d="M14 22.3327C18.6023 22.3327 22.3333 18.6017 22.3333 13.9993C22.3333 9.39698 18.6023 5.66602 14 5.66602C9.39759 5.66602 5.66663 9.39698 5.66663 13.9993C5.66663 18.6017 9.39759 22.3327 14 22.3327Z" stroke="white" stroke-width="1.66667" stroke-linecap="round" stroke-linejoin="round"/>
<path d="M11.5 14.0007L13.1667 15.6673L16.5 12.334" stroke="white" stroke-width="1.66667" stroke-linecap="round" stroke-linejoin="round"/>
</svg>
