<svg width="40" height="40" viewBox="0 0 40 40" fill="none" xmlns="http://www.w3.org/2000/svg">
<path d="M25 4.16602V6.66602C25 9.02268 25 10.201 25.7333 10.9327C26.4633 11.666 27.6417 11.666 30 11.666H32.5" stroke="#673147" stroke-width="2" stroke-linecap="round" stroke-linejoin="round"/>
<path d="M13.3346 18.333H26.668M13.3346 23.333H26.668M13.3346 28.333H20.2846M6.66797 26.6663V13.333C6.66797 8.61967 6.66797 6.26134 8.13297 4.79801C9.5963 3.33301 11.9546 3.33301 16.668 3.33301H23.6213C24.3013 3.33301 24.643 3.33301 24.9496 3.45967C25.2546 3.58634 25.4963 3.82634 25.978 4.30967L32.358 10.6897C32.8413 11.173 33.0813 11.413 33.208 11.7197C33.3346 12.0247 33.3346 12.3663 33.3346 13.0463V26.6663C33.3346 31.3797 33.3346 33.738 31.8696 35.2013C30.4063 36.6663 28.048 36.6663 23.3346 36.6663H16.668C11.9546 36.6663 9.5963 36.6663 8.13297 35.2013C6.66797 33.738 6.66797 31.3797 6.66797 26.6663Z" stroke="#673147" stroke-width="2" stroke-linecap="round" stroke-linejoin="round"/>
</svg>
