<svg width="20" height="20" viewBox="0 0 20 20" fill="none" xmlns="http://www.w3.org/2000/svg">
<path d="M4.5 6.75C4.5 6.15326 4.73705 5.58097 5.15901 5.15901C5.58097 4.73705 6.15326 4.5 6.75 4.5C7.34674 4.5 7.91903 4.73705 8.34099 5.15901C8.76295 5.58097 9 6.15326 9 6.75C9 7.34674 8.76295 7.91903 8.34099 8.34099C7.91903 8.76295 7.34674 9 6.75 9C6.15326 9 5.58097 8.76295 5.15901 8.34099C4.73705 7.91903 4.5 7.34674 4.5 6.75ZM6.75 3.5C5.88805 3.5 5.0614 3.84241 4.4519 4.4519C3.84241 5.0614 3.5 5.88805 3.5 6.75C3.5 7.61195 3.84241 8.4386 4.4519 9.0481C5.0614 9.65759 5.88805 10 6.75 10C7.61195 10 8.4386 9.65759 9.0481 9.0481C9.65759 8.4386 10 7.61195 10 6.75C10 5.88805 9.65759 5.0614 9.0481 4.4519C8.4386 3.84241 7.61195 3.5 6.75 3.5ZM1.5 13C1.5 12.4696 1.71071 11.9609 2.08579 11.5858C2.46086 11.2107 2.96957 11 3.5 11H10.05C9.75525 11.2887 9.51387 11.6272 9.337 12H3.5C3.23478 12 2.98043 12.1054 2.79289 12.2929C2.60536 12.4804 2.5 12.7348 2.5 13V13.078L2.507 13.161C2.56126 13.6404 2.73226 14.0991 3.005 14.497C3.492 15.201 4.513 16 6.75 16C8.043 16 8.93 15.733 9.542 15.372C9.724 15.659 9.947 15.918 10.202 16.14C9.415 16.648 8.304 17 6.75 17C4.237 17 2.883 16.08 2.182 15.066C1.8129 14.5282 1.58271 13.9074 1.512 13.259C1.5063 13.2008 1.50229 13.1424 1.5 13.084V13ZM12 7.5C12 8.16304 12.2634 8.79893 12.7322 9.26777C13.2011 9.73661 13.837 10 14.5 10C15.163 10 15.7989 9.73661 16.2678 9.26777C16.7366 8.79893 17 8.16304 17 7.5C17 6.83696 16.7366 6.20107 16.2678 5.73223C15.7989 5.26339 15.163 5 14.5 5C13.837 5 13.2011 5.26339 12.7322 5.73223C12.2634 6.20107 12 6.83696 12 7.5ZM13 7.5C13 7.10218 13.158 6.72064 13.4393 6.43934C13.7206 6.15804 14.1022 6 14.5 6C14.8978 6 15.2794 6.15804 15.5607 6.43934C15.842 6.72064 16 7.10218 16 7.5C16 7.89782 15.842 8.27936 15.5607 8.56066C15.2794 8.84196 14.8978 9 14.5 9C14.1022 9 13.7206 8.84196 13.4393 8.56066C13.158 8.27936 13 7.89782 13 7.5ZM12.5 11C11.837 11 11.2011 11.2634 10.7322 11.7322C10.2634 12.2011 10 12.837 10 13.5C10 14.163 10.2634 14.7989 10.7322 15.2678C11.2011 15.7366 11.837 16 12.5 16H13C13.1326 16 13.2598 15.9473 13.3536 15.8536C13.4473 15.7598 13.5 15.6326 13.5 15.5C13.5 15.3674 13.4473 15.2402 13.3536 15.1464C13.2598 15.0527 13.1326 15 13 15H12.5C12.1022 15 11.7206 14.842 11.4393 14.5607C11.158 14.2794 11 13.8978 11 13.5C11 13.1022 11.158 12.7206 11.4393 12.4393C11.7206 12.158 12.1022 12 12.5 12H13C13.1326 12 13.2598 11.9473 13.3536 11.8536C13.4473 11.7598 13.5 11.6326 13.5 11.5C13.5 11.3674 13.4473 11.2402 13.3536 11.1464C13.2598 11.0527 13.1326 11 13 11H12.5ZM16 11C15.8674 11 15.7402 11.0527 15.6464 11.1464C15.5527 11.2402 15.5 11.3674 15.5 11.5C15.5 11.6326 15.5527 11.7598 15.6464 11.8536C15.7402 11.9473 15.8674 12 16 12H16.5C16.8978 12 17.2794 12.158 17.5607 12.4393C17.842 12.7206 18 13.1022 18 13.5C18 13.8978 17.842 14.2794 17.5607 14.5607C17.2794 14.842 16.8978 15 16.5 15H16C15.8674 15 15.7402 15.0527 15.6464 15.1464C15.5527 15.2402 15.5 15.3674 15.5 15.5C15.5 15.6326 15.5527 15.7598 15.6464 15.8536C15.7402 15.9473 15.8674 16 16 16H16.5C17.163 16 17.7989 15.7366 18.2678 15.2678C18.7366 14.7989 19 14.163 19 13.5C19 12.837 18.7366 12.2011 18.2678 11.7322C17.7989 11.2634 17.163 11 16.5 11H16ZM12 13.5C12 13.3674 12.0527 13.2402 12.1464 13.1464C12.2402 13.0527 12.3674 13 12.5 13H16.5C16.6326 13 16.7598 13.0527 16.8536 13.1464C16.9473 13.2402 17 13.3674 17 13.5C17 13.6326 16.9473 13.7598 16.8536 13.8536C16.7598 13.9473 16.6326 14 16.5 14H12.5C12.3674 14 12.2402 13.9473 12.1464 13.8536C12.0527 13.7598 12 13.6326 12 13.5Z" fill="#1F1F1F"/>
</svg>
