<svg width="16" height="16" viewBox="0 0 16 16" fill="none" xmlns="http://www.w3.org/2000/svg">
<path d="M12.668 6.41325C12.668 8.13325 11.8213 9.45659 10.5333 10.3279C10.2333 10.5306 10.0833 10.6319 10.0093 10.7479C9.93597 10.8626 9.90997 11.0146 9.85997 11.3173L9.81997 11.5526C9.73197 12.0846 9.6873 12.3506 9.50064 12.5086C9.31397 12.6666 9.04464 12.6666 8.5053 12.6666H6.76397C6.22464 12.6666 5.9553 12.6666 5.76864 12.5086C5.58197 12.3506 5.53797 12.0846 5.44864 11.5526L5.40997 11.3173C5.3593 11.0153 5.33464 10.8639 5.2613 10.7493C5.18797 10.6346 5.0373 10.5319 4.73664 10.3266C3.46264 9.45525 2.66797 8.13259 2.66797 6.41325C2.66797 3.60859 4.90664 1.33325 7.66797 1.33325C8.00388 1.3329 8.33895 1.36685 8.66797 1.43459" stroke="#673147" stroke-linecap="round" stroke-linejoin="round"/>
<path d="M9.00065 12.6666V13.3333C9.00065 13.9619 9.00065 14.2759 8.80532 14.4713C8.60998 14.6666 8.29598 14.6666 7.66732 14.6666C7.03865 14.6666 6.72465 14.6666 6.52932 14.4713C6.33398 14.2759 6.33398 13.9619 6.33398 13.3333V12.6666M11.0007 1.33325L11.1727 1.79792C11.398 2.40725 11.5107 2.71192 11.7327 2.93392C11.9553 3.15659 12.26 3.26925 12.8693 3.49459L13.334 3.66659L12.8693 3.83859C12.26 4.06392 11.9553 4.17659 11.7333 4.39859C11.5107 4.62125 11.398 4.92592 11.1727 5.53525L11.0007 5.99992L10.8287 5.53525C10.6033 4.92592 10.4907 4.62125 10.2687 4.39925C10.046 4.17659 9.74132 4.06392 9.13198 3.83859L8.66732 3.66659L9.13198 3.49459C9.74132 3.26925 10.046 3.15659 10.268 2.93459C10.4907 2.71192 10.6033 2.40725 10.8287 1.79792L11.0007 1.33325Z" stroke="#673147" stroke-linejoin="round"/>
</svg>
