<svg width="14" height="14" viewBox="0 0 14 14" fill="none" xmlns="http://www.w3.org/2000/svg">
<path d="M10.4887 6.29417V8.62751C10.4887 8.77917 10.4828 8.92501 10.4653 9.06501C10.3312 10.64 9.40366 11.4217 7.69449 11.4217H7.46116C7.31533 11.4217 7.17532 11.4917 7.08782 11.6083L6.38783 12.5417C6.07867 12.9558 5.57699 12.9558 5.26783 12.5417L4.56782 11.6083C4.49198 11.5092 4.32283 11.4217 4.19449 11.4217H3.96116C2.10033 11.4217 1.16699 10.9608 1.16699 8.62751V6.29417C1.16699 4.58501 1.9545 3.6575 3.52366 3.52334C3.66366 3.50584 3.8095 3.5 3.96116 3.5H7.69449C9.55533 3.5 10.4887 4.43334 10.4887 6.29417Z" stroke="#673147" stroke-width="1.2" stroke-miterlimit="10" stroke-linecap="round" stroke-linejoin="round"/>
<path d="M12.8218 3.96068V6.29401C12.8218 8.00901 12.0343 8.93068 10.4651 9.06484C10.4826 8.92484 10.4884 8.77901 10.4884 8.62734V6.29401C10.4884 4.43318 9.5551 3.49984 7.69427 3.49984H3.96094C3.80927 3.49984 3.66344 3.50568 3.52344 3.52318C3.6576 1.95401 4.5851 1.1665 6.29427 1.1665H10.0276C11.8884 1.1665 12.8218 2.09984 12.8218 3.96068Z" stroke="#673147" stroke-width="1.2" stroke-miterlimit="10" stroke-linecap="round" stroke-linejoin="round"/>
<path d="M7.87205 7.72917H7.8773" stroke="#673147" stroke-width="1.6" stroke-linecap="round" stroke-linejoin="round"/>
<path d="M5.83103 7.72917H5.83628" stroke="#673147" stroke-width="1.6" stroke-linecap="round" stroke-linejoin="round"/>
<path d="M3.78904 7.72917H3.79429" stroke="#673147" stroke-width="1.6" stroke-linecap="round" stroke-linejoin="round"/>
</svg>
