<svg width="32" height="32" viewBox="0 0 32 32" fill="none" xmlns="http://www.w3.org/2000/svg">
<path d="M25.3333 14.666H6.66667C5.19391 14.666 4 15.8599 4 17.3327V26.666C4 28.1388 5.19391 29.3327 6.66667 29.3327H25.3333C26.8061 29.3327 28 28.1388 28 26.666V17.3327C28 15.8599 26.8061 14.666 25.3333 14.666Z" stroke="#673147" stroke-width="2.66667" stroke-linecap="round" stroke-linejoin="round"/>
<path d="M9.33334 14.666V9.33268C9.33334 7.56457 10.0357 5.86888 11.286 4.61864C12.5362 3.36839 14.2319 2.66602 16 2.66602C17.7681 2.66602 19.4638 3.36839 20.7141 4.61864C21.9643 5.86888 22.6667 7.56457 22.6667 9.33268V14.666" stroke="#673147" stroke-width="2.66667" stroke-linecap="round" stroke-linejoin="round"/>
</svg>
