<svg width="13" height="13" viewBox="0 0 13 13" fill="none" xmlns="http://www.w3.org/2000/svg">
<path d="M6.0332 0.100342C9.31007 0.100342 11.9666 2.75613 11.9668 6.03296C11.9668 9.30994 9.31018 11.9666 6.0332 11.9666C2.75637 11.9664 0.100586 9.30983 0.100586 6.03296C0.100762 2.75624 2.75648 0.100518 6.0332 0.100342ZM6.0332 0.999756C4.6984 0.999842 3.41847 1.53051 2.47461 2.47437C1.53075 3.41822 1.00009 4.69815 1 6.03296C1 7.36788 1.53068 8.6486 2.47461 9.59253C3.41845 10.5363 4.69847 11.0661 6.0332 11.0662C7.36813 11.0662 8.64884 10.5365 9.59277 9.59253C10.5367 8.6486 11.0664 7.36788 11.0664 6.03296C11.0663 4.69823 10.5365 3.41821 9.59277 2.47437C8.64884 1.53043 7.36813 0.999756 6.0332 0.999756ZM5.91602 8.04663C6.23479 8.04679 6.47853 8.29019 6.47949 8.60913L6.4707 8.72046C6.46401 8.75682 6.45331 8.79243 6.43945 8.8269C6.41156 8.89613 6.37014 8.95966 6.31738 9.01245C6.26456 9.06527 6.20112 9.10661 6.13184 9.13452C6.06325 9.16215 5.98993 9.17472 5.91602 9.17358L5.91699 9.17456L5.91504 9.17358L5.91406 9.17456V9.17358C5.84056 9.17414 5.76733 9.16122 5.69922 9.13354C5.63046 9.10554 5.56819 9.06391 5.51562 9.01147C5.46292 8.95884 5.42071 8.89588 5.39258 8.8269C5.36456 8.75809 5.35074 8.6844 5.35156 8.61011C5.35204 8.28984 5.60159 8.04663 5.91602 8.04663ZM6.05762 3.01636C7.12472 3.01636 7.88379 3.68381 7.88379 4.59058C7.88363 5.27172 7.52816 5.75283 6.98438 6.07983H6.9834C6.72891 6.23007 6.57885 6.35505 6.49023 6.48511C6.40411 6.61158 6.37012 6.75375 6.37012 6.95483V7.31909H5.45801V6.84448C5.45599 6.55843 5.5244 6.31222 5.6709 6.09351C5.7799 5.93086 5.9298 5.787 6.11816 5.65308L6.47754 5.4187C6.62161 5.31671 6.72314 5.21901 6.79297 5.11597C6.88409 4.98138 6.9267 4.82897 6.92676 4.62671C6.92676 4.40161 6.83989 4.20988 6.68848 4.07397C6.53636 3.93746 6.31203 3.85132 6.0293 3.85132C5.74231 3.85135 5.51668 3.93549 5.3584 4.07886C5.20025 4.22228 5.09993 4.43385 5.0791 4.70386L5.07227 4.79565H4.17871L4.18359 4.69019C4.20719 4.2301 4.37321 3.81002 4.68945 3.50464C5.00627 3.19876 5.46488 3.01644 6.05762 3.01636Z" fill="#673147" stroke="#673147" stroke-width="0.2"/>
</svg>
